<svg xmlns="http://www.w3.org/2000/svg" version="1.1" id="Capa_1" x="0" y="0" viewBox="0 0 512 512" xml:space="preserve" width="512" height="512"><path d="M490.667 191.968h-42.453a200.895 200.895 0 00-10.987-26.667l29.973-29.973.006-.006c8.329-8.333 8.327-21.84-.006-30.17L406.848 44.8c-8.441-8.057-21.724-8.057-30.165 0l-30.016 29.995A200.974 200.974 0 00320 63.808V21.333C320 9.551 310.449 0 298.667 0h-85.333C201.551 0 192 9.551 192 21.333v42.475a200.922 200.922 0 00-26.699 10.965L135.328 44.8c-8.441-8.069-21.735-8.069-30.176 0L44.8 105.152c-8.328 8.331-8.328 21.835 0 30.165l29.995 30.016A200.974 200.974 0 0063.808 192H21.333C9.551 192 0 201.551 0 213.333V256h21.333v-42.667h50.336a10.666 10.666 0 0010.251-7.712 180.728 180.728 0 0115.296-37.184 10.666 10.666 0 00-1.792-12.704l-35.531-35.499 60.341-60.341 35.541 35.531a10.666 10.666 0 0012.693 1.792A180.977 180.977 0 01205.62 81.92a10.666 10.666 0 007.712-10.251V21.333h85.333v50.336a10.666 10.666 0 007.712 10.251 180.976 180.976 0 0137.195 15.296 10.666 10.666 0 0012.693-1.792l35.499-35.531 60.341 60.341-35.531 35.531a10.666 10.666 0 00-1.792 12.704 180.708 180.708 0 0115.296 37.152 10.666 10.666 0 0010.251 7.712h50.336V256H512v-42.699c0-11.782-9.551-21.333-21.333-21.333z" data-original="#000000" class="active-path" data-old_color="#000000" fill="#fff"/><path d="M256 138.667c-58.91 0-106.667 47.756-106.667 106.667V256h21.333v-10.667C170.667 198.205 208.872 160 256 160s85.333 38.205 85.333 85.333V256h21.333v-10.667c.001-58.91-47.756-106.666-106.666-106.666zM245.33 42.667h21.333V64H245.33zM106.67 106.67h21.333v21.333H106.67zM42.667 234.67H64v21.333H42.667zM448 234.67h21.333v21.333H448zM384 106.67h21.333v21.333H384zM128 405.333H21.333C9.551 405.333 0 414.885 0 426.667v64C0 502.449 9.551 512 21.333 512H128c11.782 0 21.333-9.551 21.333-21.333v-64c0-11.782-9.551-21.334-21.333-21.334zm0 85.334H21.333v-64H128v64zM490.667 405.333H384c-11.782 0-21.333 9.551-21.333 21.333v64c0 11.782 9.551 21.333 21.333 21.333h106.667c11.782 0 21.333-9.551 21.333-21.333v-64c0-11.781-9.551-21.333-21.333-21.333zm0 85.334H384v-64h106.667v64zM309.333 405.333H202.667c-11.782 0-21.333 9.551-21.333 21.333v64c0 11.782 9.551 21.333 21.333 21.333h106.667c11.782 0 21.333-9.551 21.333-21.333v-64c0-11.781-9.552-21.333-21.334-21.333zm.001 85.334H202.667v-64h106.667v64zM437.333 320H74.667C68.776 320 64 324.776 64 330.667V384h21.333v-42.667h341.333V384H448v-53.333c0-5.891-4.776-10.667-10.667-10.667z" data-original="#000000" class="active-path" data-old_color="#000000" fill="#fff"/><path data-original="#000000" class="active-path" data-old_color="#000000" fill="#fff" d="M245.33 245.33h21.333V384H245.33zM42.667 448H64v21.333H42.667zM85.33 448h21.333v21.333H85.33zM224 448h21.333v21.333H224zM266.67 448h21.333v21.333H266.67zM405.33 448h21.333v21.333H405.33zM448 448h21.333v21.333H448z"/><path d="M256 192c-29.455 0-53.333 23.878-53.333 53.333V256H224v-10.667c0-17.673 14.327-32 32-32 17.673 0 32 14.327 32 32V256h21.333v-10.667C309.333 215.878 285.455 192 256 192z" data-original="#000000" class="active-path" data-old_color="#000000" fill="#fff"/></svg>